<?xml version="1.0" ?><!DOCTYPE svg  PUBLIC '-//W3C//DTD SVG 1.1//EN'  'http://www.w3.org/Graphics/SVG/1.1/DTD/svg11.dtd'><svg height="6.82666in" style="shape-rendering:geometricPrecision; text-rendering:geometricPrecision; image-rendering:optimizeQuality; fill-rule:evenodd; clip-rule:evenodd" viewBox="0 0 6.82666 6.82666" width="6.82666in" xml:space="preserve" xmlns="http://www.w3.org/2000/svg" xmlns:xlink="http://www.w3.org/1999/xlink"><defs><style type="text/css">
   <![CDATA[
    .fil1 {fill:none}
    .fil0 {fill:#fff;fill-rule:nonzero}
   ]]>
  </style></defs><g id="Layer_x0020_1"><path class="fil0" d="M3.4516 0.999949l0.882894 0.643654 0.887102 0.646713 -0.031248 0.0429173 0.0314173 -0.0430945c0.0237992,0.0173504 0.0290276,0.0507126 0.0116772,0.0745118 -0.00443307,0.00607874 -0.00990945,0.0109449 -0.0160079,0.0145354l-0.882941 0.643677 -0.887067 0.646697 0.000141732 0.00019685c-0.0206575,0.015063 -0.0485236,0.0131063 -0.0668661,-0.00324016l-0.882894 -0.643654 -0.887102 -0.646713 0.031248 -0.0429173 -0.0314173 0.0430945c-0.0237992,-0.0173504 -0.0290276,-0.0507126 -0.0116772,-0.0745118 0.00443307,-0.00607874 0.00990945,-0.0109449 0.0160079,-0.0145354l0.882941 -0.643677 0.887067 -0.646697 -0.000141732 -0.00019685c0.0206575,-0.015063 0.0485236,-0.0131063 0.0668661,0.00324016zm0.820398 0.729488l-0.855846 -0.623937 -0.855846 0.623937 -0.828232 0.603795 0.828232 0.603795 0.855846 0.623937 0.855846 -0.623937 0.828232 -0.603795 -0.828232 -0.603795z"/><path class="fil0" d="M1.6732 4.34384c-0.0237008,-0.0172559 -0.0569094,-0.0120315 -0.0741654,0.0116693 -0.0172559,0.0237008 -0.0120315,0.0569094 0.0116693,0.0741654l0.887102 0.646713 0.887067 0.646697 -0.000141732 0.00019685c0.0206575,0.015063 0.0485236,0.0131063 0.0668661,-0.00324016l0.882894 -0.643654 0.887102 -0.646713 -0.031248 -0.0429173 0.0314173 0.0430945c0.0143071,-0.0104291 0.0218976,-0.0266457 0.0219134,-0.0430945l3.93701e-006 0 0 -2.05352c0,-0.0294528 -0.0238819,-0.0533346 -0.0533346,-0.0533346 -0.0294528,0 -0.0533346,0.0238819 -0.0533346,0.0533346l0 2.02671 -0.865016 0.63061 -0.855846 0.623937 -0.855846 -0.623937 -0.887102 -0.646713z"/></g><rect class="fil1" height="6.82666" width="6.82666"/></svg>